####
#
#	OBJ File Generated by LightWave3D
#	LightWave3D OBJ Export v2.3
#
####
o untitled.obj
mtllib untitled.mtl
g default
v 0.2 -0.2 -0.2
v 0.2 -0.2 0.2
v -0.2 -0.2 0.2
v -0.2 -0.2 -0.2
v 0.2 0.2 -0.2
v 0.2 0.2 0.2
v -0.2 0.2 0.2
v -0.2 0.2 -0.2
vt -1 -0
vt 0 -1
vt 0 -0
vt 0 1
vt 1 -0
vn 0 -1 0
vn 0 -1 0
vn 0 -1 0
vn 0 1 0
vn 0 1 0
vn 0 1 0
vn 0 -1 0
vn 0 -1 0
vn 0 -1 0
vn 0 1 0
vn 0 1 0
vn 0 1 0
vn -1 -0 -0
vn -1 -0 -0
vn -1 -0 -0
vn -1 -0 -0
vn -1 -0 -0
vn -1 -0 -0
vn 0 -0 1
vn 0 -0 1
vn 0 -0 1
vn 0 -0 1
vn 0 -0 1
vn 0 -0 1
vn 1 -0 0
vn 1 -0 0
vn 1 -0 0
vn 1 -0 0
vn 1 -0 0
vn 1 -0 0
vn 0 0 -1
vn 0 0 -1
vn 0 0 -1
vn 0 0 -1
vn 0 0 -1
vn 0 0 -1
g Material
usemtl Material
s off
f 2/2/1 4/2/2 1/2/3
f 8/4/4 6/4/5 5/4/6
f 2/2/7 3/2/8 4/2/9
f 8/4/10 7/4/11 6/4/12
g Red
usemtl Red
s off
f 3/1/13 8/1/14 4/1/15
f 3/1/16 7/1/17 8/1/18
g Blue
usemtl Blue
s off
f 6/3/19 3/3/20 2/3/21
f 6/3/22 7/3/23 3/3/24
g Green
usemtl Green
s off
f 5/5/25 2/5/26 1/5/27
f 5/5/28 6/5/29 2/5/30
g Yellow
usemtl Yellow
s off
f 1/3/31 8/3/32 5/3/33
f 1/3/34 4/3/35 8/3/36
